<?xml version="1.0" encoding="UTF-8"?>
<svg id="Layer_1" data-name="Layer 1" xmlns="http://www.w3.org/2000/svg" viewBox="0 0 762.26 715.18">
  <defs>
      <style>
        .cls-1 {
          fill: #fff;
          stroke: #fff; /* Changed from black to white */
          stroke-width: 15px; /* Added this! Increase or decrease this number to adjust thickness */
          stroke-miterlimit: 10;
        }
      </style>
    </defs>
  <path class="cls-1" d="M483.27,701.63c-67.74,17.64-140.45,17.43-208-.84C134.95,662.86,24.31,549.54,3.67,403.46c-14.38-101.77,20.97-204.07,90.07-279.15C153.32,59.57,233.44,17.86,320.53,4.99c113.18-16.72,227.78,13.4,314.95,87.61,60.47,51.48,103.48,120.92,119.14,198.9,5.28,26.31,8.08,51.98,6.85,78.62-1.76,38.02-9.08,74.54-22.85,110.06-43,110.91-140.96,191.67-255.35,221.46ZM354.99,704.75l18.95.44.02-387.04,54.67,54.82.02,329.77,19.05-2.57.02-317.65,54.38,54.4.03,249.66,19.09-6.87.05-228.42,54.51,54.18.07,148.59c93.61-54.33,158.64-144.48,173.42-252.18,13.84-101.66-21.43-201.46-91.45-275.62-51.08-54.1-117.78-91.3-190.25-107.55-57.09-12.79-118.93-12.41-175.94.68-81.93,18.81-155.63,64.84-207.95,130.77C22.42,227.39-3.91,327.5,16.69,424.27l8.26,31.78,8.96,25.3c24.88,61.23,66.19,112.14,119.68,151.56l.06-127.58,54.34-54.3.07,214.56,18.76,8.67v-236.82s54.98-55.42,54.98-55.42l.04,311.4,18.64,3.79.04-324.23,54.45-54.32.04,386.08Z"/>
</svg>